<?xml version="1.0" encoding="utf-8"?>
<!-- Generator: Adobe Illustrator 18.0.0, SVG Export Plug-In . SVG Version: 6.00 Build 0)  -->
<!DOCTYPE svg PUBLIC "-//W3C//DTD SVG 1.0//EN" "http://www.w3.org/TR/2001/REC-SVG-20010904/DTD/svg10.dtd">
<svg version="1.0" id="Layer_1" xmlns="http://www.w3.org/2000/svg" xmlns:xlink="http://www.w3.org/1999/xlink" x="0px" y="0px"
	 viewBox="0 0 612 792" enable-background="new 0 0 612 792" xml:space="preserve">
<path fill="#F1F3F9" d="M306.1,238.9c-86.9,0-157,70.1-157,157s70.1,157,157,157s157-70.1,157-157S393,238.9,306.1,238.9z
	 M306.1,497.9c-56.1,0-102-45.8-102-102s45.8-102,102-102s102,45.8,102,102S362.3,497.9,306.1,497.9L306.1,497.9z M506.1,232.5
	c0,20.4-16.4,36.6-36.6,36.6c-20.4,0-36.6-16.4-36.6-36.6s16.4-36.6,36.6-36.6C489.7,195.9,506.1,212.3,506.1,232.5z M610.1,269.6
	c-2.3-49-13.5-92.5-49.5-128.3c-35.8-35.8-79.2-47-128.3-49.5c-50.5-2.9-202-2.9-252.6,0c-48.9,2.3-92.3,13.5-128.3,49.3
	S4.5,220.5,2,269.5c-2.9,50.5-2.9,202,0,252.6c2.3,49,13.5,92.5,49.5,128.3c35.9,35.8,79.2,47,128.3,49.5c50.5,2.9,202,2.9,252.6,0
	c49-2.3,92.5-13.5,128.3-49.5c35.8-35.8,47-79.2,49.5-128.3C613,471.5,613,320.2,610.1,269.6L610.1,269.6z M544.8,576.3
	c-10.7,26.8-31.3,47.4-58.2,58.2c-40.3,16-135.9,12.3-180.5,12.3s-140.3,3.6-180.5-12.3c-26.8-10.7-47.4-31.3-58.2-58.2
	c-16-40.3-12.3-135.9-12.3-180.5s-3.6-140.3,12.3-180.5c10.7-26.8,31.3-47.4,58.2-58.2c40.3-16,135.9-12.3,180.5-12.3
	s140.3-3.6,180.5,12.3c26.8,10.7,47.4,31.3,58.2,58.2c16,40.3,12.3,135.9,12.3,180.5S560.8,536.2,544.8,576.3z"/>
</svg>
