<?xml version="1.0" encoding="utf-8"?>
<!-- Generator: Adobe Illustrator 18.0.0, SVG Export Plug-In . SVG Version: 6.00 Build 0)  -->
<!DOCTYPE svg PUBLIC "-//W3C//DTD SVG 1.0//EN" "http://www.w3.org/TR/2001/REC-SVG-20010904/DTD/svg10.dtd">
<svg version="1.0" id="Layer_1" xmlns="http://www.w3.org/2000/svg" xmlns:xlink="http://www.w3.org/1999/xlink" x="0px" y="0px"
	 viewBox="0 0 612 792" enable-background="new 0 0 612 792" xml:space="preserve">
<path fill="#F1F3F9" d="M204.7,570.5c0,2.5-2.8,4.4-6.4,4.4c-4.1,0.4-6.9-1.6-6.9-4.4c0-2.5,2.8-4.4,6.4-4.4
	C201.5,565.7,204.7,567.6,204.7,570.5z M166.3,564.9c-0.9,2.5,1.6,5.3,5.3,6c3.2,1.2,6.9,0,7.6-2.5c0.7-2.5-1.6-5.3-5.3-6.4
	C170.8,561.2,167.2,562.4,166.3,564.9L166.3,564.9z M220.9,562.8c-3.6,0.9-6,3.2-5.7,6c0.4,2.5,3.6,4.1,7.3,3.2
	c3.6-0.9,6-3.2,5.7-5.7C227.8,564.1,224.4,562.4,220.9,562.8z M302.1,90C130.9,90,0,219.9,0,391.1C0,527.9,86.1,645,209.1,686.2
	c15.8,2.8,21.3-6.9,21.3-14.9c0-7.7-0.4-49.8-0.4-75.8c0,0-86.4,18.5-104.5-36.8c0,0-14.1-35.9-34.3-45.2c0,0-28.3-19.4,2-19
	c0,0,30.7,2.5,47.6,31.8c27,47.6,72.3,33.9,89.9,25.8c2.8-19.7,10.9-33.4,19.7-41.6C181.6,503,112,493,112,374.3
	c0-33.9,9.4-51,29.1-72.7c-3.2-8-13.7-41.1,3.2-83.8c25.8-8,85.1,33.3,85.1,33.3c24.7-6.9,51.2-10.5,77.5-10.5
	c26.3,0,52.8,3.6,77.5,10.5c0,0,59.3-41.5,85.1-33.3c16.9,42.8,6.4,75.8,3.2,83.8c19.7,21.8,31.8,38.9,31.8,72.7
	c0,119.1-72.7,128.6-141.6,136.3c11.4,9.7,21,28.3,21,57.3c0,41.6-0.4,93-0.4,103.2c0,8,5.7,17.8,21.3,14.9
	c123.4-41,207-158.1,207-294.9C612,219.9,473.2,90,302.1,90z M119.9,515.6c-1.6,1.2-1.2,4.1,0.9,6.4c2,2,4.8,2.8,6.4,1.2
	c1.6-1.2,1.2-4.1-0.9-6.4C124.4,514.8,121.5,514,119.9,515.6z M106.6,505.6c-0.9,1.6,0.4,3.6,2.8,4.8c2,1.2,4.4,0.9,5.3-0.9
	c0.9-1.6-0.4-3.6-2.8-4.8C109.4,504,107.5,504.3,106.6,505.6z M146.6,549.5c-2,1.6-1.2,5.3,1.6,7.7c2.8,2.8,6.4,3.2,8,1.2
	c1.6-1.6,0.9-5.3-1.6-7.7C151.9,547.9,148.2,547.5,146.6,549.5z M132.5,531.4c-2,1.2-2,4.4,0,7.3c2,2.8,5.3,4.1,6.9,2.8
	c2-1.6,2-4.8,0-7.7C137.7,531,134.5,529.8,132.5,531.4L132.5,531.4z"/>
</svg>
