<?xml version="1.0" encoding="utf-8"?>
<!-- Generator: Adobe Illustrator 18.0.0, SVG Export Plug-In . SVG Version: 6.00 Build 0)  -->
<!DOCTYPE svg PUBLIC "-//W3C//DTD SVG 1.0//EN" "http://www.w3.org/TR/2001/REC-SVG-20010904/DTD/svg10.dtd">
<svg version="1.0" id="Layer_1" xmlns="http://www.w3.org/2000/svg" xmlns:xlink="http://www.w3.org/1999/xlink" x="0px" y="0px"
	 viewBox="0 0 612 792" enable-background="new 0 0 612 792" xml:space="preserve">
<path fill="#F1F3F9" d="M137,702H10.1V293.4H137V702z M78.4,237.5C34.8,240.4-1.3,204.4,0,161.1C1.3,121.5,34.3,89.7,74,90
	c42.4,0.3,76.2,36.5,72.7,79.6C143.8,205.9,114.7,235.1,78.4,237.5z M612,702H486.5c-0.6,0-1.1-0.5-1.1-1.1V503.1
	c0-47.4-1-108.2-66-108.2c-66,0-76.1,51.5-76.1,104.8v201.2c0,0.6-0.5,1.1-1.1,1.1H217.6c-0.6,0-1.1-0.5-1.1-1.1V294.5
	c0-0.6,0.5-1.1,1.1-1.1h119.5c0.6,0,1.1,0.5,1.1,1.1V348c0,0.6,0.5,1.1,1.1,1.1l0,0c0.4,0,0.8-0.2,1-0.6
	c17.1-31.9,58.4-65.4,119.8-65.4c128.4,0,152,84.6,152,194.4V702H612z"/>
</svg>
